<svg width="832" height="605" xmlns="http://www.w3.org/2000/svg" xmlns:xlink="http://www.w3.org/1999/xlink" overflow="hidden"><defs><clipPath id="clip0"><rect x="0" y="0" width="832" height="605"/></clipPath><clipPath id="clip1"><rect x="583" y="139" width="244" height="244"/></clipPath><clipPath id="clip2"><rect x="583" y="139" width="244" height="244"/></clipPath><clipPath id="clip3"><rect x="583" y="139" width="244" height="244"/></clipPath><clipPath id="clip4"><rect x="6" y="149" width="223" height="223"/></clipPath><clipPath id="clip5"><rect x="6" y="149" width="223" height="223"/></clipPath><clipPath id="clip6"><rect x="6" y="149" width="223" height="223"/></clipPath></defs><g clip-path="url(#clip0)"><rect x="0" y="0" width="832" height="604.97" fill="#FFFFFF"/><g clip-path="url(#clip1)"><g clip-path="url(#clip2)"><g clip-path="url(#clip3)"><path d="M171.838 107.294C178.697 102.662 186.569 97.4736 184.494 89.5765 184.342 88.969 182.114 88.969 181.962 89.5765 180.925 94.0059 179.862 98.0051 169.307 104.763 168.699 105.143 170.927 107.902 171.838 107.294Z" transform="matrix(1.00005 0 0 1 584 139.993)"/><path d="M141.49 154.247C142.097 153.74 147.539 151.716 148.071 150.652 148.995 148.822 150.287 147.202 151.867 145.894 152.29 145.653 152.774 145.538 153.26 145.565L154.12 146.4C154.93 146.917 155.708 147.484 156.449 148.096 156.702 148.425 156.246 148.729 156.246 148.729L156.246 148.729 155.183 148.957C155.267 149.231 155.335 149.51 155.386 149.792 155.386 150.349 153.057 151.488 153.057 151.488L154.12 152.753C154.12 152.753 156.854 153.158 155.816 154.879L153.285 157.638 152.019 160.397C152.019 160.397 152.019 162.321 151.386 162.726 150.754 163.131 150.526 162.523 149.488 162.954 147.066 163.245 144.609 162.914 142.35 161.992 142.111 161.311 142.032 160.583 142.123 159.866 142.123 159.866 141.616 159.866 140.958 158.904 140.173 157.388 140.383 155.547 141.49 154.247Z" transform="matrix(1.00005 0 0 1 584 139.993)"/><path d="M131.745 165.713C129.404 163.738 127.267 161.533 125.367 159.132L123.898 157.866 119.216 152.121 117.52 150.425C117.52 150.425 116.837 149.792 117.318 149.589 118.608 149.445 119.914 149.592 121.14 150.02 121.874 150.374 125.746 154.905 126.43 154.879 127.113 154.854 127.569 154.576 128.125 154.879 128.965 155.59 129.744 156.368 130.454 157.208 130.909 157.374 131.343 157.595 131.745 157.866 132.127 158.448 132.409 159.09 132.58 159.765 133.048 160.552 133.711 161.205 134.504 161.663 136.023 162.726 135.339 162.726 135.339 162.726L134.909 164.65C134.909 164.65 135.364 166.548 134.909 166.978 134.453 167.408 133.998 167.206 131.745 165.713Z" transform="matrix(1.00005 0 0 1 584 139.993)"/><path d="M120.735 22.7801C67.6144 22.7801 24.5519 65.8426 24.5519 118.963 24.5519 172.083 67.6144 215.145 120.735 215.145 173.855 215.145 216.917 172.083 216.917 118.963 216.917 65.8426 173.855 22.7801 120.735 22.7801ZM166.877 46.3702C166.523 46.6739 166.497 47.3067 166.497 48.6229 166.497 51.154 161.435 48.6229 156.373 48.6229 151.311 48.6229 143.717 51.154 141.186 51.154 138.655 51.154 136.124 53.6851 133.593 53.6851 131.062 53.6851 133.188 50.015 131.062 48.6229 118.001 39.9917 103.219 53.6851 100.688 51.154 98.157 48.6229 88.0325 53.6851 83.6536 53.9889 79.2748 54.2926 75.3769 53.6851 77.908 51.154 80.4391 48.6229 77.908 48.6229 75.3769 46.0918L75.225 45.9652C103.295 28.406 138.963 28.5635 166.877 46.3702ZM176.546 53.5333C212.672 84.2457 217.061 138.429 186.348 174.555 186.004 174.96 185.656 175.363 185.304 175.761 184.873 175.989 184.848 175.761 184.797 175.432 184.747 175.103 184.797 174.369 185.202 174.369 185.607 174.369 186.113 174.116 186.164 173.838 186.215 173.559 186.316 171.306 186.392 171.18 186.468 171.053 186.012 170.243 185.962 170.117 185.579 169.03 185.291 167.912 185.101 166.776 185.101 166.345 185.101 165.991 185.101 166.016 184.505 166.584 184.001 167.242 183.608 167.965 183.177 169.104 183 170.294 182.621 171.711 182.394 173.555 181.317 175.185 179.71 176.116 178.216 176.799 175.432 170.826 175.432 170.648 175.435 170.483 175.509 170.326 175.635 170.218 176.089 169.956 176.529 169.669 176.951 169.357 177.38 169.07 177.771 168.73 178.115 168.345 178.115 167.915 177.786 167.282 177.558 167.459 177.309 167.639 177.003 167.72 176.698 167.687 176.434 167.584 176.212 167.397 176.065 167.155 175.253 166.776 174.405 166.48 173.534 166.27 173.154 166.27 172.901 166.016 172.623 166.27 172.344 166.523 171.965 167.864 171.965 167.864 171.965 167.864 170.421 169.636 170.421 169.636 170.421 169.636 165.358 173.635 164.194 173.458 163.03 173.281 161.992 174.648 161.992 174.648 161.258 174.799 159.461 176.976 159.208 177.179 158.955 177.381 150.982 182.671 149.311 183.506 148.526 183.886 147.008 183.709 146.78 183.962 145.317 185.659 144.26 187.667 143.692 189.834 143.692 190.594 142.097 190.948 141.945 192.011 141.692 193.707 143.008 195.529 143.008 196.339 143.064 196.869 143.064 197.404 143.008 197.934 143.008 197.934 142.199 198.389 142.148 198.567 142.065 198.698 142.065 198.865 142.148 198.997 142.71 199.261 143.294 199.473 143.894 199.63 144.527 199.63 144.78 198.389 144.704 196.972L146.172 196.365C147.374 195.641 148.822 195.448 150.172 195.833 154.373 196.542 154.955 196.871 156.12 196.466 156.95 196.267 157.798 196.148 158.651 196.111 115.986 217.055 64.4201 199.447 43.4761 156.782 38.932 147.526 36.0885 137.527 35.0814 127.265 40.8017 129.037 51.7362 128.201 61.9619 119.469 65.2777 116.634 61.6835 115.09 59.0511 113.065 56.4187 111.04 71.9598 114.078 74.5922 115.596 77.2246 117.115 75.9843 119.823 76.1868 120.659 77.8075 125.627 79.7608 130.481 82.0337 135.187 85.6785 142.781 86.8682 145.059 88.2856 144.249 90.1923 142.35 91.0273 139.626 90.513 136.984 90.108 133.77 90.108 130.733 91.8545 131.694 93.6009 132.656 100.182 127.113 103.32 124.683 106.459 122.253 106.636 122.886 108.054 120.254 109.471 117.621 108.864 120.659 112.002 124.253 115.141 127.847 116.128 128.125 115.622 129.138 115.115 130.15 114.508 133.365 117.115 134.377 117.644 134.613 118.264 134.468 118.634 134.023 118.254 138.225 119.14 144.806 125.594 152.323 128.353 155.538 132.049 157.562 133.188 156.702 134.327 155.841 124.152 141.515 125.772 137.389 127.391 133.264 128.986 138.807 132.352 140.806 135.719 142.806 134.884 143.844 139.288 140.806 143.692 137.769 139.895 133.542 136.453 130.125 133.011 126.708 135.845 125.468 138.503 123.392 141.161 121.317 140.098 125.923 141.895 126.075 143.692 126.227 145.742 121.646 150.172 120.633 154.601 119.621 155.816 114.584 157.588 111.091 159.36 107.598 155.411 105.523 152.525 101.878 149.64 98.2329 158.271 93.6516 159.461 96.1827 160.65 98.7138 160.043 101.245 162.65 103.093 165.257 104.94 166.27 99.8275 165.181 98.0304 164.093 96.2333 162.65 98.0304 162.65 92.9682 162.65 87.9059 170.243 82.8437 172.774 82.8437 175.306 82.8437 172.774 75.2503 170.243 72.1876 167.712 69.125 162.65 70.188 161.359 70.7955 160.068 71.403 162.777 67.6569 164.194 63.9362 165.611 60.2154 170.37 62.5947 170.37 62.5947L172.901 60.0636C172.901 60.0636 174.091 64.164 175.28 64.3412 176.47 64.5183 176.698 61.3291 176.698 58.798L176.698 54.3685Z" transform="matrix(1.00005 0 0 1 584 139.993)"/><path d="M173.939 149.007 180.267 157.436C180.997 158.423 182.331 158.743 183.431 158.195L186.594 156.601 190.847 158.018C192.17 158.467 193.608 157.758 194.057 156.435 194.16 156.13 194.205 155.808 194.188 155.487L194.188 155.487C194.188 154.593 193.716 153.766 192.948 153.31L182.241 146.805C181.839 146.577 181.386 146.455 180.925 146.451 180.925 146.451 174.496 145.818 174.04 146.451 173.584 147.084 173.939 149.007 173.939 149.007Z" transform="matrix(1.00005 0 0 1 584 139.993)"/></g></g></g><g clip-path="url(#clip4)"><g clip-path="url(#clip5)"><g clip-path="url(#clip6)"><path d="M148.964 166.492 72.6551 166.492C63.077 166.492 55.3123 174.256 55.3123 183.835 55.3123 193.413 63.077 201.178 72.6551 201.178L148.964 201.178C158.542 201.178 166.307 193.413 166.307 183.835 166.307 174.256 158.542 166.492 148.964 166.492ZM77.2799 190.772C73.4485 190.772 70.3428 187.666 70.3428 183.835 70.3428 180.003 73.4485 176.897 77.2799 176.897 81.1113 176.897 84.2171 180.003 84.2171 183.835 84.2171 187.666 81.1113 190.772 77.2799 190.772ZM110.809 190.772C106.978 190.772 103.872 187.666 103.872 183.835 103.872 180.003 106.978 176.897 110.809 176.897 114.641 176.897 117.747 180.003 117.747 183.835 117.747 187.666 114.641 190.772 110.809 190.772ZM144.339 190.772C140.508 190.772 137.402 187.666 137.402 183.835 137.402 180.003 140.508 176.897 144.339 176.897 148.17 176.897 151.276 180.003 151.276 183.835 151.276 187.666 148.17 190.772 144.339 190.772Z" transform="matrix(1.00455 0 0 1 6.00004 149.992)"/><path d="M126.788 64.7468C126.788 66.6624 125.235 68.2154 123.32 68.2154 121.404 68.2154 119.851 66.6624 119.851 64.7468 119.851 62.8311 121.404 61.2782 123.32 61.2782 125.235 61.2782 126.788 62.8311 126.788 64.7468Z" transform="matrix(1.00455 0 0 1 6.00004 149.992)"/><path d="M130.904 41.6229 115.619 41.6229 115.619 31.1016C120.043 28.5473 121.559 22.8905 119.005 18.4665 116.451 14.0425 110.794 12.5267 106.37 15.0809 101.946 17.6351 100.43 23.292 102.984 27.716 103.796 29.1222 104.964 30.2897 106.37 31.1016L106.37 41.6229 91.0848 41.6229C85.4838 41.6357 80.9462 46.1732 80.9335 51.7743L80.9335 77.7193C80.9462 83.3203 85.4838 87.8579 91.0848 87.8706L130.904 87.8706C136.505 87.8579 141.043 83.3203 141.055 77.7193L141.055 51.7743C141.043 46.1732 136.505 41.6357 130.904 41.6229ZM99.4326 71.6839C95.6012 71.6839 92.4954 68.5782 92.4954 64.7468 92.4954 60.9154 95.6012 57.8096 99.4326 57.8096 103.264 57.8096 106.37 60.9154 106.37 64.7468 106.37 68.5782 103.264 71.6839 99.4326 71.6839ZM122.556 71.6839C118.725 71.6839 115.619 68.5782 115.619 64.7468 115.619 60.9154 118.725 57.8096 122.556 57.8096 126.388 57.8096 129.494 60.9154 129.494 64.7468 129.494 68.5782 126.388 71.6839 122.556 71.6839Z" transform="matrix(1.00455 0 0 1 6.00004 149.992)"/><path d="M103.664 64.7468C103.664 66.6624 102.111 68.2154 100.196 68.2154 98.28 68.2154 96.7271 66.6624 96.7271 64.7468 96.7271 62.8311 98.28 61.2782 100.196 61.2782 102.111 61.2782 103.664 62.8311 103.664 64.7468Z" transform="matrix(1.00455 0 0 1 6.00004 149.992)"/><path d="M171.117 136.014 171.117 116.752C171.117 111.018 166.468 106.37 160.734 106.37L147.993 106.37 147.993 94.8078 73.9963 94.8078 73.9963 108.682 56.6303 108.682C56.0046 108.682 55.4972 108.175 55.4972 107.549L55.4972 88.3794C63.4463 86.0318 67.9871 77.6848 65.6396 69.736 65.0102 67.6049 63.9155 65.6403 62.4344 63.9837L55.4972 70.1346C56.4675 71.1898 57.0186 72.5631 57.0465 73.9963 57.0292 77.189 54.4268 79.7632 51.2341 79.7458 48.0414 79.7283 45.4675 77.1261 45.4848 73.9334 45.4922 72.5543 45.9924 71.2235 46.8952 70.1809L39.958 64.0993C34.508 70.3608 35.1658 79.8548 41.4273 85.3048 42.8439 86.5378 44.4787 87.4944 46.2477 88.125L46.2477 107.549C46.2477 113.283 50.8961 117.932 56.6303 117.932L73.9963 117.932 73.9963 159.555 147.993 159.555 147.993 115.619 160.734 115.619C161.36 115.619 161.867 116.127 161.867 116.752L161.867 136.014C153.969 138.569 149.637 147.043 152.192 154.942 152.832 156.918 153.874 158.741 155.254 160.295L162.191 154.144C161.234 153.095 160.706 151.725 160.711 150.305 160.714 147.112 163.304 144.526 166.497 144.529 169.689 144.532 172.275 147.122 172.273 150.315 172.272 151.715 171.762 153.067 170.839 154.12L177.776 160.202C183.247 153.976 182.636 144.494 176.41 139.022 174.87 137.669 173.068 136.645 171.117 136.014ZM138.743 127.181 132.315 127.181C132.091 127.221 131.878 127.308 131.69 127.436L124.614 134.673 119.227 121.909 109.168 142.72 102.115 115.619 96.6808 127.181 85.5583 127.181 85.5583 122.556 93.7441 122.556 103.364 102.092 110.486 129.332 119.527 110.833 126.187 126.603 128.499 124.291C129.515 123.263 130.873 122.646 132.315 122.556L138.743 122.556Z" transform="matrix(1.00455 0 0 1 6.00004 149.992)"/></g></g></g><text font-family="Roboto,Roboto_MSFontService,sans-serif" font-weight="400" font-size="27" transform="matrix(1 0 0 0.99995 82.5291 388)">Agent<tspan font-size="27" x="-10.1728" y="32.0016">(Policy)</tspan><tspan font-size="27" x="548.183" y="11.0006">Environment</tspan></text><path d="M210.96 131.506 218.219 123.427 225.995 115.651 234.148 108.327 242.669 101.395 251.507 94.8471 260.726 88.6799 270.198 82.959 280.044 77.6236 290.069 72.738 300.351 68.2321 310.893 64.1678 321.669 60.5547 332.565 57.3243 343.599 54.5341 354.822 52.1883 366.156 50.2888 377.623 48.7684 389.1 47.7539 400.681 47.1843 412.272 46.9943 423.872 47.3113 435.524 48.0712 447.125 49.2756 458.663 50.9871 470.127 53.1404 481.528 55.7373 492.816 58.781 503.989 62.336 514.962 66.3951 525.802 70.8958 536.406 75.8482 546.92 81.3915 565.266 92.6514 573.947 98.7793 582.288 105.274 590.186 112.088 594.679 116.35 589.169 122.157 584.745 117.96 584.885 118.087 577.135 111.4 577.291 111.527 569.104 105.153 569.254 105.265 560.754 99.2649 560.969 99.4061 542.844 88.2817 543.071 88.411 532.758 82.9737 532.931 83.0597 522.494 78.1849 522.653 78.255 511.965 73.8177 512.111 73.8751 501.299 69.8753 501.474 69.9355 490.474 66.4357 490.645 66.486 479.52 63.4862 479.674 63.5243 468.424 60.9619 468.573 60.993 457.261 58.8682 457.413 58.8936 446.038 57.2062 446.212 57.2281 434.774 56.0407 434.927 56.0536 423.427 55.3036 423.578 55.3106 412.141 54.9982 412.316 54.9991 400.878 55.1866 401.009 55.1823 389.572 55.7448 389.727 55.7341 378.415 56.734 378.589 56.7148 367.276 58.2148 367.411 58.1944 356.224 60.0693 356.381 60.0397 345.319 62.3521 345.481 62.3146 334.606 65.0645 334.763 65.0215 324.013 68.2089 324.147 68.1664 313.522 71.7287 313.69 71.6684 303.315 75.6682 303.482 75.5995 293.357 80.0368 293.503 79.9689 283.628 84.7811 283.782 84.7021 274.094 89.9519 274.257 89.8589 264.944 95.4836 265.1 95.3844 256.038 101.447 256.195 101.336 247.508 107.773 247.651 107.662 239.276 114.474 239.425 114.347 231.425 121.534 231.58 121.387 223.955 129.011 224.102 128.856 216.915 136.856ZM591.924 119.254 595.626 93.8957 608.312 136.806 566.371 121.209Z" fill="#B51F1F"/><path d="M655.786 423.414 648.414 433.432 640.464 443.161 632.007 452.382 623.046 461.215 613.591 469.591 603.755 477.586 593.47 485.077 582.811 492.119 571.786 498.645 560.447 504.79 548.727 510.428 536.764 515.618 524.54 520.304 512.075 524.48 499.353 528.214 486.446 531.378 473.363 534.095 460.147 536.308 446.807 538.015 433.334 539.217 419.8 539.85 406.276 539.976 392.618 539.597 379.014 538.647 365.421 537.13 351.827 535.107 338.35 532.513 324.939 529.35 311.589 525.617 298.432 521.316 285.453 516.505 272.589 510.992 258.857 504.348 245.621 497.129 232.873 489.328 220.75 480.887 209.271 471.945 198.353 462.487 195.461 459.667 201.049 453.936 203.857 456.674 203.683 456.515 214.433 465.827 214.272 465.694 225.585 474.506 225.412 474.379 237.35 482.691 237.152 482.562 249.714 490.249 249.542 490.149 262.604 497.274 262.431 497.185 275.993 503.747 275.827 503.671 288.514 509.108 288.329 509.034 301.141 513.784 300.994 513.733 313.994 517.982 313.828 517.932 327.015 521.619 326.856 521.578 340.106 524.703 339.944 524.669 353.257 527.231 353.089 527.202 366.527 529.202 366.382 529.183 379.819 530.683 379.654 530.668 393.091 531.606 392.924 531.598 406.424 531.973 406.275 531.971 419.65 531.846 419.501 531.85 432.876 531.225 432.707 531.237 446.019 530.049 445.867 530.066 459.055 528.379 458.901 528.401 471.964 526.214 471.811 526.242 484.748 523.555 484.61 523.586 497.36 520.462 497.185 520.509 509.748 516.821 509.604 516.867 521.916 512.742 521.755 512.8 533.817 508.175 533.657 508.24 545.469 503.116 545.327 503.181 556.89 497.618 556.718 497.706 567.906 491.644 567.774 491.719 578.649 485.282 578.481 485.386 588.981 478.449 588.831 478.553 598.956 471.179 598.788 471.308 608.475 463.434 608.346 463.543 617.658 455.294 617.503 455.439 626.315 446.752 626.175 446.897 634.488 437.835 634.338 438.008 642.151 428.446 642.026 428.606 649.339 418.669ZM198.255 456.802 194.904 482.208 181.625 439.478 223.779 454.493Z" fill="#007480"/><path d="M615.223 404.077 608.41 412.403 601.145 420.432 593.43 428.084 585.275 435.346 576.815 442.152 567.983 448.633 558.82 454.741 549.289 460.396 539.573 465.666 529.537 470.493 519.264 474.932 508.735 478.991 498.011 482.608 487.099 485.78 476.012 488.504 464.805 490.847 453.523 492.748 442.064 494.204 430.535 495.281 418.933 495.852 407.343 495.978 395.68 495.661 384.027 494.838 372.439 493.635 360.84 491.924 349.305 489.769 337.829 487.106 326.542 483.999 315.324 480.387 304.227 476.329 293.308 471.758 282.583 466.681 272.615 461.412 262.959 455.758 253.674 449.717 244.781 443.302 236.252 436.619 230.665 431.692 235.96 425.689 241.46 430.539 241.281 430.391 249.656 436.953 249.529 436.857 258.279 443.169 258.12 443.061 267.245 448.998 267.085 448.899 276.585 454.461 276.433 454.376 286.246 459.564 286.087 459.484 296.65 464.484 296.483 464.41 307.233 468.91 307.062 468.843 318 472.842 317.852 472.792 328.914 476.354 328.75 476.305 339.875 479.367 339.717 479.327 351.03 481.952 350.86 481.917 362.235 484.041 362.084 484.016 373.522 485.704 373.351 485.682 384.788 486.87 384.657 486.858 396.157 487.671 395.984 487.662 407.484 487.975 407.331 487.973 418.769 487.848 418.616 487.853 430.053 487.291 429.878 487.303 441.253 486.241 441.12 486.255 452.433 484.818 452.272 484.842 463.397 482.967 463.244 482.996 474.306 480.683 474.17 480.714 485.107 478.027 484.945 478.07 495.695 474.945 495.533 474.996 506.096 471.434 505.935 471.492 516.31 467.492 516.162 467.553 526.287 463.178 526.14 463.245 536.015 458.495 535.842 458.584 545.404 453.397 545.27 453.473 554.645 447.91 554.467 448.022 563.467 442.023 563.32 442.126 572.007 435.751 571.866 435.86 580.179 429.173 580.026 429.302 588.026 422.178 587.869 422.325 595.432 414.825 595.282 414.982 602.407 407.107 602.277 407.258 609.027 399.008ZM233.312 428.69 230.51 454.163 216.313 411.729 258.78 425.832Z" fill="#00A79F"/><text font-family="Roboto,Roboto_MSFontService,sans-serif" font-weight="400" font-size="27" transform="matrix(1 0 0 0.99995 338.733 568)">Observation<tspan font-size="27" x="26.8499" y="-94.0047">Reward</tspan><tspan font-size="27" x="33.2701" y="-482.024">Action</tspan></text></g></svg>