<svg width="1280" height="624" xmlns="http://www.w3.org/2000/svg" xmlns:xlink="http://www.w3.org/1999/xlink" overflow="hidden"><defs><clipPath id="clip0"><rect x="0" y="0" width="1280" height="624"/></clipPath><linearGradient x1="1071" y1="193.103" x2="1071" y2="225.12" gradientUnits="userSpaceOnUse" spreadMethod="reflect" id="fill1"><stop offset="0" stop-color="#B51F1F" stop-opacity="0.6"/><stop offset="0.00990099" stop-color="#B51F1F" stop-opacity="0.59604"/><stop offset="0.019802" stop-color="#B51F1F" stop-opacity="0.592079"/><stop offset="0.029703" stop-color="#B51F1F" stop-opacity="0.588119"/><stop offset="0.039604" stop-color="#B41F1F" stop-opacity="0.584158"/><stop offset="0.049505" stop-color="#B51E1E" stop-opacity="0.580198"/><stop offset="0.0594059" stop-color="#B51F1F" stop-opacity="0.576238"/><stop offset="0.0693069" stop-color="#B51F1F" stop-opacity="0.572277"/><stop offset="0.0792079" stop-color="#B51F1F" stop-opacity="0.568317"/><stop offset="0.0891089" stop-color="#B41E1E" stop-opacity="0.564356"/><stop offset="0.0990099" stop-color="#B51F1F" stop-opacity="0.560396"/><stop offset="0.108911" stop-color="#B51F1F" stop-opacity="0.556436"/><stop offset="0.118812" stop-color="#B51F1F" stop-opacity="0.552475"/><stop offset="0.128713" stop-color="#B41F1F" stop-opacity="0.548515"/><stop offset="0.138614" stop-color="#B51F1F" stop-opacity="0.544554"/><stop offset="0.148515" stop-color="#B51F1F" stop-opacity="0.540594"/><stop offset="0.158416" stop-color="#B51F1F" stop-opacity="0.536634"/><stop offset="0.168317" stop-color="#B51F1F" stop-opacity="0.532673"/><stop offset="0.178218" stop-color="#B51F1F" stop-opacity="0.528713"/><stop offset="0.188119" stop-color="#B51F1F" stop-opacity="0.524752"/><stop offset="0.19802" stop-color="#B51F1F" stop-opacity="0.520792"/><stop offset="0.207921" stop-color="#B51F1F" stop-opacity="0.516832"/><stop offset="0.217822" stop-color="#B51F1F" stop-opacity="0.512871"/><stop offset="0.227723" stop-color="#B51F1F" stop-opacity="0.508911"/><stop offset="0.237624" stop-color="#B51F1F" stop-opacity="0.504951"/><stop offset="0.247525" stop-color="#B51F1F" stop-opacity="0.50099"/><stop offset="0.257426" stop-color="#B51F1F" stop-opacity="0.49703"/><stop offset="0.267327" stop-color="#B51E1E" stop-opacity="0.493069"/><stop offset="0.277228" stop-color="#B51F1F" stop-opacity="0.489109"/><stop offset="0.287129" stop-color="#B51F1F" stop-opacity="0.485149"/><stop offset="0.29703" stop-color="#B51F1F" stop-opacity="0.481188"/><stop offset="0.306931" stop-color="#B51F1F" stop-opacity="0.477228"/><stop offset="0.316832" stop-color="#B51F1F" stop-opacity="0.473267"/><stop offset="0.326733" stop-color="#B51F1F" stop-opacity="0.469307"/><stop offset="0.336634" stop-color="#B51F1F" stop-opacity="0.465347"/><stop offset="0.346535" stop-color="#B51F1F" stop-opacity="0.461386"/><stop offset="0.356436" stop-color="#B51E1E" stop-opacity="0.457426"/><stop offset="0.366337" stop-color="#B51F1F" stop-opacity="0.453465"/><stop offset="0.376238" stop-color="#B51E1E" stop-opacity="0.449505"/><stop offset="0.386139" stop-color="#B51F1F" stop-opacity="0.445545"/><stop offset="0.39604" stop-color="#B51E1E" stop-opacity="0.441584"/><stop offset="0.405941" stop-color="#B51E1E" stop-opacity="0.437624"/><stop offset="0.415842" stop-color="#B51F1F" stop-opacity="0.433663"/><stop offset="0.425743" stop-color="#B51F1F" stop-opacity="0.429703"/><stop offset="0.435644" stop-color="#B51F1F" stop-opacity="0.425743"/><stop offset="0.445545" stop-color="#B51E1E" stop-opacity="0.421782"/><stop offset="0.455446" stop-color="#B51F1F" stop-opacity="0.417822"/><stop offset="0.465347" stop-color="#B51E1E" stop-opacity="0.413861"/><stop offset="0.475248" stop-color="#B51F1F" stop-opacity="0.409901"/><stop offset="0.485149" stop-color="#B51F1F" stop-opacity="0.405941"/><stop offset="0.49505" stop-color="#B51F1F" stop-opacity="0.40198"/><stop offset="0.504951" stop-color="#B51F1F" stop-opacity="0.39802"/><stop offset="0.514852" stop-color="#B51E1E" stop-opacity="0.394059"/><stop offset="0.524752" stop-color="#B51E1E" stop-opacity="0.390099"/><stop offset="0.534653" stop-color="#B51F1F" stop-opacity="0.386139"/><stop offset="0.544554" stop-color="#B51F1F" stop-opacity="0.382178"/><stop offset="0.554455" stop-color="#B51F1F" stop-opacity="0.378218"/><stop offset="0.564356" stop-color="#B51F1F" stop-opacity="0.374257"/><stop offset="0.574257" stop-color="#B51F1F" stop-opacity="0.370297"/><stop offset="0.584158" stop-color="#B51F1F" stop-opacity="0.366337"/><stop offset="0.594059" stop-color="#B51E1E" stop-opacity="0.362376"/><stop offset="0.60396" stop-color="#B51F1F" stop-opacity="0.358416"/><stop offset="0.613861" stop-color="#B51F1F" stop-opacity="0.354455"/><stop offset="0.623762" stop-color="#B51F1F" stop-opacity="0.350495"/><stop offset="0.633663" stop-color="#B51E1E" stop-opacity="0.346535"/><stop offset="0.643564" stop-color="#B51E1E" stop-opacity="0.342574"/><stop offset="0.653465" stop-color="#B51E1E" stop-opacity="0.338614"/><stop offset="0.663366" stop-color="#B51F1F" stop-opacity="0.334653"/><stop offset="0.673267" stop-color="#B51F1F" stop-opacity="0.330693"/><stop offset="0.683168" stop-color="#B51F1F" stop-opacity="0.326733"/><stop offset="0.693069" stop-color="#B51F1F" stop-opacity="0.322772"/><stop offset="0.70297" stop-color="#B51F1F" stop-opacity="0.318812"/><stop offset="0.712871" stop-color="#B51F1F" stop-opacity="0.314851"/><stop offset="0.722772" stop-color="#B51F1F" stop-opacity="0.310891"/><stop offset="0.732673" stop-color="#B51F1F" stop-opacity="0.306931"/><stop offset="0.742574" stop-color="#B51E1E" stop-opacity="0.30297"/><stop offset="0.752475" stop-color="#B51E1E" stop-opacity="0.29901"/><stop offset="0.762376" stop-color="#B51F1F" stop-opacity="0.295049"/><stop offset="0.772277" stop-color="#B51E1E" stop-opacity="0.291089"/><stop offset="0.782178" stop-color="#B51F1F" stop-opacity="0.287129"/><stop offset="0.792079" stop-color="#B51E1E" stop-opacity="0.283168"/><stop offset="0.80198" stop-color="#B51F1F" stop-opacity="0.279208"/><stop offset="0.811881" stop-color="#B51E1E" stop-opacity="0.275248"/><stop offset="0.821782" stop-color="#B51F1F" stop-opacity="0.271287"/><stop offset="0.831683" stop-color="#B51F1F" stop-opacity="0.267327"/><stop offset="0.841584" stop-color="#B51F1F" stop-opacity="0.263366"/><stop offset="0.851485" stop-color="#B51F1F" stop-opacity="0.259406"/><stop offset="0.861386" stop-color="#B51F1F" stop-opacity="0.255446"/><stop offset="0.871287" stop-color="#B51F1F" stop-opacity="0.251485"/><stop offset="0.881188" stop-color="#B51F1F" stop-opacity="0.247525"/><stop offset="0.891089" stop-color="#B51F1F" stop-opacity="0.243564"/><stop offset="0.90099" stop-color="#B51F1F" stop-opacity="0.239604"/><stop offset="0.910891" stop-color="#B51F1F" stop-opacity="0.235644"/><stop offset="0.920792" stop-color="#B51E1E" stop-opacity="0.231683"/><stop offset="0.930693" stop-color="#B51F1F" stop-opacity="0.227723"/><stop offset="0.940594" stop-color="#B51F1F" stop-opacity="0.223762"/><stop offset="0.950495" stop-color="#B51F1F" stop-opacity="0.219802"/><stop offset="0.960396" stop-color="#B51F1F" stop-opacity="0.215842"/><stop offset="0.970297" stop-color="#B51F1F" stop-opacity="0.211881"/><stop offset="0.980198" stop-color="#B51F1F" stop-opacity="0.207921"/><stop offset="0.990099" stop-color="#B51F1F" stop-opacity="0.20396"/><stop offset="1" stop-color="#B51F1F" stop-opacity="0.2"/></linearGradient></defs><g clip-path="url(#clip0)"><rect x="0" y="0" width="1280" height="624.334" fill="#FFFFFF"/><path d="M1076.83 234.625 1076.83 364.662 1066.17 364.662 1066.17 234.625ZM1071.5 364.662 1087.5 353.989 1071.5 386.006 1055.5 353.989Z" fill="#007480"/><path d="M2.63389e-06-5.33333 191.253-5.33324 191.253 5.33343-2.63389e-06 5.33333ZM191.253 9.44513e-05 180.586-15.9999 212.586 0.000104987 180.586 16.0001Z" fill="#007480" transform="matrix(-1 0 0 1.00053 968.086 523.78)"/><path d="M2.0158e-06-5.33333 256.437-5.33324 256.437 5.33343-2.0158e-06 5.33333ZM256.437 9.69237e-05 245.771-15.9999 277.771 0.000104987 245.771 16.0001Z" fill="#007480" transform="matrix(-1 0 0 1.00053 547.271 523.78)"/><path d="M5.33333-1.14325e-05 5.33339 27.6437-5.33327 27.6437-5.33333 1.14325e-05ZM5.92568e-05 27.6437 16 16.977 0.000104987 48.977-16 16.977Z" fill="#007480" transform="matrix(1 0 0 -1.00053 165.5 472.73)"/><path d="M426 200.733C426 196.519 429.414 193.103 433.625 193.103L588.375 193.103C592.586 193.103 596 196.519 596 200.733L596 286.528C596 290.741 592.586 294.157 588.375 294.157L433.625 294.157C429.414 294.157 426 290.741 426 286.528Z" fill="#B51F1F" fill-rule="evenodd" fill-opacity="0.701961"/><text fill="#FFFFFF" font-family="Cambria Math,Cambria Math_MSFontService,sans-serif" font-weight="400" font-size="27" transform="matrix(1 0 0 1.00053 494.794 253)">ğ¹<tspan font-size="20" x="13.42" y="4.99733">3</tspan></text><path d="M706 229.408C706 226.487 708.366 224.12 711.285 224.12L870.715 224.12C873.634 224.12 876 226.487 876 229.408L876 288.869C876 291.79 873.634 294.157 870.715 294.157L711.285 294.157C708.366 294.157 706 291.79 706 288.869Z" stroke="#7F7F7F" stroke-width="4" stroke-miterlimit="8" stroke-dasharray="4 4" fill="#FFFFFF" fill-rule="evenodd" fill-opacity="0.6"/><text font-family="Roboto Light,Roboto Light_MSFontService,sans-serif" font-weight="300" font-size="27" transform="matrix(1 0 0 1.00053 747.947 268)">discard</text><path d="M407.5 54.1464C407.5 49.3846 411.358 45.5244 416.118 45.5244L606.883 45.5244C611.642 45.5244 615.5 49.3846 615.5 54.1464L615.5 415.104C615.5 419.866 611.642 423.726 606.883 423.726L416.118 423.726C411.358 423.726 407.5 419.866 407.5 415.104Z" stroke="#404040" stroke-width="6.66667" stroke-miterlimit="8" fill="none" fill-rule="evenodd"/><path d="M80 255.292C80 248.575 85.4422 243.13 92.1554 243.13L237.845 243.13C244.558 243.13 250 248.575 250 255.292L250 392.054C250 398.771 244.558 404.216 237.845 404.216L92.1554 404.216C85.4422 404.216 80 398.771 80 392.054Z" fill="#B51F1F" fill-rule="evenodd"/><text fill="#FFFFFF" font-family="Roboto Black,Roboto Black_MSFontService,sans-serif" font-weight="900" font-size="27" transform="matrix(1 0 0 1.00053 108.092 317)">Offspring<tspan font-family="Cambria Math,Cambria Math_MSFontService,sans-serif" font-weight="400" font-size="27" x="43.4467" y="31.9829">ğ‘„</tspan><tspan font-family="Cambria Math,Cambria Math_MSFontService,sans-serif" font-weight="400" font-size="20" x="60.6" y="36.9802">ğ‘¡</tspan></text><path d="M61.5001 54.1464C61.5001 49.3846 65.3582 45.5244 70.1175 45.5244L260.883 45.5244C265.642 45.5244 269.5 49.3846 269.5 54.1464L269.5 415.104C269.5 419.866 265.642 423.726 260.883 423.726L70.1175 423.726C65.3582 423.726 61.5001 419.866 61.5001 415.104Z" stroke="#404040" stroke-width="6.66667" stroke-miterlimit="8" fill="none" fill-rule="evenodd"/><path d="M967.5 55.8758C967.5 50.1588 972.132 45.5244 977.846 45.5244L1165.15 45.5244C1170.87 45.5244 1175.5 50.1588 1175.5 55.8758L1175.5 224.274C1175.5 229.991 1170.87 234.625 1165.15 234.625L977.846 234.625C972.132 234.625 967.5 229.991 967.5 224.274Z" stroke="#404040" stroke-width="6.66667" stroke-miterlimit="8" fill="none" fill-rule="evenodd"/><path d="M80 76.1962C80 69.4793 85.4422 64.0342 92.1554 64.0342L237.845 64.0342C244.558 64.0342 250 69.4793 250 76.1962L250 212.958C250 219.675 244.558 225.12 237.845 225.12L92.1554 225.12C85.4422 225.12 80 219.675 80 212.958Z" fill="#B51F1F" fill-rule="evenodd"/><text fill="#FFFFFF" font-family="Roboto Black,Roboto Black_MSFontService,sans-serif" font-weight="900" font-size="27" transform="matrix(1 0 0 1.00053 100.012 137)">Population<tspan font-family="Cambria Math,Cambria Math_MSFontService,sans-serif" font-weight="400" font-size="27" x="53.2867" y="31.9829">ğ‘ƒ</tspan><tspan font-family="Cambria Math,Cambria Math_MSFontService,sans-serif" font-weight="400" font-size="20" x="66.92" y="37.9797">ğ‘¡</tspan></text><path d="M426 68.189C426 65.8944 427.859 64.0342 430.153 64.0342L591.847 64.0342C594.141 64.0342 596 65.8944 596 68.189L596 114.909C596 117.203 594.141 119.064 591.847 119.064L430.153 119.064C427.859 119.064 426 117.203 426 114.909Z" fill="#B51F1F" fill-rule="evenodd"/><text fill="#FFFFFF" font-family="Cambria Math,Cambria Math_MSFontService,sans-serif" font-weight="400" font-size="27" transform="matrix(1 0 0 1.00053 495.104 101)">ğ¹<tspan font-size="20" x="12.8" y="4.99733">1</tspan></text><path d="M426 140.869C426 139.325 427.251 138.074 428.794 138.074L593.206 138.074C594.749 138.074 596 139.325 596 140.869L596 172.298C596 173.842 594.749 175.094 593.206 175.094L428.794 175.094C427.251 175.094 426 173.842 426 172.298Z" fill="#B51F1F" fill-rule="evenodd" fill-opacity="0.8"/><text fill="#FFFFFF" font-family="Cambria Math,Cambria Math_MSFontService,sans-serif" font-weight="400" font-size="27" transform="matrix(1 0 0 1.00053 494.794 166)">ğ¹<tspan font-size="20" x="13.42" y="4.99733">2</tspan></text><path d="M426 315.585C426 314.25 427.082 313.167 428.416 313.167L593.584 313.167C594.918 313.167 596 314.25 596 315.585L596 342.767C596 344.102 594.918 345.184 593.584 345.184L428.416 345.184C427.082 345.184 426 344.102 426 342.767Z" fill="#B51F1F" fill-rule="evenodd" fill-opacity="0.4"/><text fill="#FFFFFF" font-family="Cambria Math,Cambria Math_MSFontService,sans-serif" font-weight="400" font-size="27" transform="matrix(1 0 0 1.00053 495.364 338)">ğ¹<tspan font-size="20" x="12.28" y="5.9968">4</tspan></text><path d="M426 374.616C426 373.281 427.082 372.199 428.416 372.199L593.584 372.199C594.918 372.199 596 373.281 596 374.616L596 401.799C596 403.134 594.918 404.216 593.584 404.216L428.416 404.216C427.082 404.216 426 403.134 426 401.799Z" fill="#B51F1F" fill-rule="evenodd" fill-opacity="0.2"/><text fill="#FFFFFF" font-family="Cambria Math,Cambria Math_MSFontService,sans-serif" font-weight="400" font-size="27" transform="matrix(1 0 0 1.00053 495.107 397)">ğ¹<tspan font-size="20" x="11.1266" y="5.9968">ğ‘›</tspan><tspan fill="#000000" font-size="27" x="12.0532" y="-30.9834">â‹®</tspan></text><path d="M987 68.189C987 65.8944 988.859 64.0342 991.153 64.0342L1152.85 64.0342C1155.14 64.0342 1157 65.8944 1157 68.189L1157 114.909C1157 117.203 1155.14 119.064 1152.85 119.064L991.153 119.064C988.859 119.064 987 117.203 987 114.909Z" fill="#B51F1F" fill-rule="evenodd"/><path d="M987 140.869C987 139.325 988.251 138.074 989.794 138.074L1154.21 138.074C1155.75 138.074 1157 139.325 1157 140.869L1157 172.298C1157 173.842 1155.75 175.094 1154.21 175.094L989.794 175.094C988.251 175.094 987 173.842 987 172.298Z" fill="#B51F1F" fill-rule="evenodd" fill-opacity="0.8"/><path d="M986 195.52C986 194.185 987.082 193.103 988.416 193.103L1153.58 193.103C1154.92 193.103 1156 194.185 1156 195.52L1156 222.703C1156 224.038 1154.92 225.12 1153.58 225.12L988.416 225.12C987.082 225.12 986 224.038 986 222.703Z" fill="url(#fill1)" fill-rule="evenodd"/><path d="M707 195.445C707 194.152 708.048 193.103 709.34 193.103L874.66 193.103C875.952 193.103 877 194.152 877 195.445L877 221.778C877 223.071 875.952 224.12 874.66 224.12L709.34 224.12C708.048 224.12 707 223.071 707 221.778Z" fill="#D37979" fill-rule="evenodd"/><text font-family="Cambria Math,Cambria Math_MSFontService,sans-serif" font-weight="400" font-size="43" transform="matrix(1 0 0 1.00053 274.556 438)">ğ‘…<tspan font-size="31" x="26.44" y="8.99519">ğ‘¡</tspan><tspan font-size="43" x="906.038" y="-187.9">ğ‘ƒ</tspan><tspan font-size="31" x="927.958" y="-178.904">ğ‘¡</tspan><tspan font-size="31" x="942.458" y="-178.904">+</tspan><tspan font-size="31" x="965.124" y="-178.904">1</tspan></text><path d="M967.5 397.058C967.5 391.341 972.132 386.707 977.846 386.707L1165.15 386.707C1170.87 386.707 1175.5 391.341 1175.5 397.058L1175.5 565.456C1175.5 571.173 1170.87 575.808 1165.15 575.808L977.846 575.808C972.132 575.808 967.5 571.173 967.5 565.456Z" stroke="#2F5597" stroke-width="6.66667" stroke-miterlimit="8" fill="none" fill-rule="evenodd"/><text font-family="Roboto Black,Roboto Black_MSFontService,sans-serif" font-weight="900" font-size="32" transform="matrix(1 0 0 1.00053 1024.76 472)">Binary <tspan font-size="32" x="-42.0866" y="38.9792">Tournament</tspan></text><path d="M547.5 478.394C547.5 475.278 550.024 472.753 553.138 472.753L749.862 472.753C752.976 472.753 755.5 475.278 755.5 478.394L755.5 570.167C755.5 573.282 752.976 575.808 749.862 575.808L553.138 575.808C550.024 575.808 547.5 573.282 547.5 570.167Z" stroke="#2F5597" stroke-width="6.66667" stroke-miterlimit="8" fill="none" fill-rule="evenodd"/><text font-family="Roboto Black,Roboto Black_MSFontService,sans-serif" font-weight="900" font-size="32" transform="matrix(1 0 0 1.00053 585.96 535)">Mutation</text><path d="M61.5001 478.394C61.5001 475.278 64.0243 472.753 67.1382 472.753L263.862 472.753C266.976 472.753 269.5 475.278 269.5 478.394L269.5 570.167C269.5 573.282 266.976 575.808 263.862 575.808L67.1382 575.808C64.0243 575.808 61.5001 573.282 61.5001 570.167Z" stroke="#2F5597" stroke-width="6.66667" stroke-miterlimit="8" fill="none" fill-rule="evenodd"/><text font-family="Roboto Black,Roboto Black_MSFontService,sans-serif" font-weight="900" font-size="32" transform="matrix(1 0 0 1.00053 91.2323 535)">Crossover</text><path d="M269 226.121 374.617 226.121 374.617 242.129 269 242.129ZM374.617 234.125 358.617 210.112 406.617 234.125 358.617 258.138Z" fill="#B51F1F"/><path d="M596.5 86.2128 962.2 86.2129 962.2 98.8863 596.5 98.8862ZM962.199 92.5496 949.533 73.5394 987.533 92.5496 949.533 111.56Z" fill="#B51F1F"/><path d="M596.5 152.081 969.533 152.081 969.533 161.086 596.5 161.086ZM969.533 156.584 960.533 143.077 987.533 156.584 960.533 170.091Z" fill="#B51F1F"/><path d="M0.00296022-6.16667 85.5644-6.12559 85.5585 6.20774-0.00296022 6.16667ZM85.5615 0.0410725 73.237-18.4648 110.228 0.0529134 73.2193 18.5352Z" fill="#B51F1F" transform="matrix(1 0 0 -1.00053 596 243.183)"/><path d="M876.501 205.11 968.729 205.132 968.727 214.137 876.499 214.114ZM968.728 209.634 959.732 196.125 986.728 209.639 959.725 223.139Z" fill="#B51F1F"/><text font-family="Roboto Light,Roboto Light_MSFontService,sans-serif" font-weight="700" font-size="24" transform="matrix(1 0 0 1.00053 310.478 131)">Non<tspan font-size="24" x="42.8333" y="0">-</tspan><tspan font-size="24" x="-30.6667" y="30.9834">dominated</tspan><tspan font-size="27" x="-15.0867" y="62.9664">sorting</tspan><tspan font-size="24" x="431.133" y="189.899">Crowding </tspan><tspan font-size="24" x="397.72" y="218.883">distance sorting</tspan><tspan font-size="24" x="778.811" y="195.895">Create</tspan><tspan font-family="Cambria Math,Cambria Math_MSFontService,sans-serif" font-weight="400" font-size="24" x="852.644" y="195.895">ğ‘„</tspan><tspan font-family="Cambria Math,Cambria Math_MSFontService,sans-serif" font-weight="400" font-size="18" x="868.051" y="200.893">ğ‘¡</tspan></text></g></svg>