<svg width="832" height="605" xmlns="http://www.w3.org/2000/svg" xmlns:xlink="http://www.w3.org/1999/xlink" overflow="hidden"><defs><clipPath id="clip0"><rect x="0" y="0" width="832" height="605"/></clipPath></defs><g clip-path="url(#clip0)"><rect x="0" y="0" width="832" height="604.97" fill="#FFFFFF"/><path d="M512.5 300.983 653.585 300.984 653.585 305.986 512.5 305.986ZM653.585 303.485 643.579 290.978 668.594 303.485 643.579 315.992Z"/><path d="M127.688 113.293 336.139 225.836 333.762 230.239 125.311 117.695ZM334.951 228.037 332.088 212.279 348.157 235.168 320.204 234.289Z"/><path d="M126.5 300.983 304.941 300.984 304.941 305.986 126.5 305.986ZM304.941 303.485 294.935 290.978 319.95 303.485 294.935 315.992Z"/><path d="M1.18841-2.20104 209.629 110.342 207.252 114.744-1.18841 2.20104ZM208.44 112.543 205.578 96.7843 221.646 119.674 193.694 118.795Z" transform="matrix(1.00005 0 0 -1 126.5 491.155)"/><path d="M320 302.485C320 249.192 362.981 205.99 416 205.99 469.019 205.99 512 249.192 512 302.485 512 355.778 469.019 398.98 416 398.98 362.981 398.98 320 355.778 320 302.485Z" stroke="#B51F1F" stroke-width="6.00361" stroke-miterlimit="8" fill="none" fill-rule="evenodd"/><path d="M1.40667-53.3274 52.1097-53.3274 52.1097-40.8983 49.3383-40.8983C49.0164-43.8796 48.3656-46.2381 47.3858-47.9737 46.406-49.7093 44.9224-50.5771 42.9349-50.5771L9.80469-50.5771 34.8518-16.5651 34.8518-14.0247 7.81016 22.6746 44.2366 22.6746C45.8462 22.6746 47.0779 22.1078 47.9317 20.974 48.7855 19.8403 49.5203 17.3069 50.1362 13.3738L53.2434 13.3738 52.1727 28.7632 0.545872 28.7632 0.545872 26.6847 29.9599-13.1849 1.40667-51.3329Z" fill-rule="evenodd" transform="matrix(1.00005 0 0 1 383.977 310.502)"/><text fill="#000000" fill-opacity="0" font-family="Arial,Arial_MSFontService,sans-serif" font-size="82.0906" x="0.545872" y="18.5019">р╖Н</text><text font-family="Cambria Math,Cambria Math_MSFontService,sans-serif" font-weight="400" font-size="48" transform="matrix(1 0 0 0.99995 59.9394 321)">ЁЭСе<tspan font-size="35" x="25.0484" y="9.00045">2</tspan><tspan font-size="48" x="0.390209" y="-190.01">ЁЭСе</tspan><tspan font-size="35" x="24.3246" y="-180.009">1</tspan><tspan font-size="48" x="0" y="187.009">ЁЭСе</tspan><tspan font-size="35" x="25.0484" y="197.01">3</tspan><tspan font-size="48" x="626.563" y="-2.0001">ЁЭСж</tspan><tspan font-size="48" x="138.787" y="-178.009">ЁЭСд</tspan><tspan font-size="35" x="171.6" y="-168.008">1</tspan><tspan font-size="48" x="138.23" y="-39.002">ЁЭСд</tspan><tspan font-size="35" x="172.157" y="-29.0015">2</tspan><tspan font-size="48" x="138.23" y="87.0044">ЁЭСд</tspan><tspan font-size="35" x="172.157" y="97.0049">3</tspan></text></g></svg>